# xmcd CD database generated by RipIT
#
# Track frame offsets:
# 150
# 13084
# 29524
# 46616
# 70854
# 92529
# 114864
# 131594
# 147354
# 167954
# 187349
# 208739
# 225576
# 256706
# 275491
# 280721
#
# Disc length: 4123 seconds
#
# Revision: 0
# Processed by: cddbd v1.5.2PL0 Copyright (c) Steve Scherf et al.
# Submitted via: RipIT 3.9.0 www.suwald.com/ripit/ripit.html on 2016-05-19 at 09:07
#
DISCID=e1101910
DTITLE=Nina Simone - Young, Gifted And Black
DYEAR=2001
DGENRE=Soul
TTITLE0=Backlash Blues
TTITLE1=Do What You Gotta Do
TTITLE2=Please Don'T Let Me Be Isunderstood
TTITLE3=For A While
TTITLE4=Four Women
TTITLE5=I Love You, Porgy
TTITLE6=I Sing Just To Know That I'M Alive
TTITLE7=I Want A Little Sugar In My Bowl
TTITLE8=Mississippi Goddam
TTITLE9=My Baby Just Cares For Me
TTITLE10=Pirate Jenny
TTITLE11=See Line Woman
TTITLE12=The House Of The Rising Sun
TTITLE13=The Other Woman
TTITLE14=You Took My Teeth
TTITLE15=Young, Gifted And Black
EXTD=
EXTT0=
EXTT1=
EXTT2=
EXTT3=
EXTT4=
EXTT5=
EXTT6=
EXTT7=
EXTT8=
EXTT9=
EXTT10=
EXTT11=
EXTT12=
EXTT13=
EXTT14=
EXTT15=
PLAYORDER=
